HIERARCHY
ROOT hip
{
  OFFSET -161.874 85.8073 19.4603
  CHANNELS 6 Xposition Yposition Zposition Zrotation Xrotation Yrotation
  JOINT abdomen
  {
    OFFSET 0 20.6881 -0.73152
    CHANNELS 3 Zrotation Xrotation Yrotation
    JOINT chest
    {
      OFFSET 0 11.7043 -0.48768
      CHANNELS 3 Zrotation Xrotation Yrotation
      JOINT neck
      {
        OFFSET 0 22.1894 -2.19456
        CHANNELS 3 Zrotation Xrotation Yrotation
        JOINT head
        {
          OFFSET -0.24384 7.07133 1.2192
          CHANNELS 3 Zrotation Xrotation Yrotation
          JOINT leftEye
          {
            OFFSET 4.14528 8.04674 8.04672
            CHANNELS 3 Zrotation Xrotation Yrotation
            End Site
            {
              OFFSET 1 0 0
            }
          }
          JOINT rightEye
          {
            OFFSET -3.6576 8.04674 8.04672
            CHANNELS 3 Zrotation Xrotation Yrotation
            End Site
            {
              OFFSET 1 0 0
            }
          }
        }
      }
      JOINT rCollar
      {
        OFFSET -2.68224 19.2634 -4.8768
        CHANNELS 3 Zrotation Xrotation Yrotation
        JOINT rShldr
        {
          OFFSET -8.77824 -1.95073 1.46304
          CHANNELS 3 Zrotation Xrotation Yrotation
          JOINT rForeArm
          {
            OFFSET -28.1742 -1.7115 0.48768
            CHANNELS 3 Zrotation Xrotation Yrotation
            JOINT rHand
            {
              OFFSET -22.5879 0.773209 7.07136
              CHANNELS 3 Zrotation Xrotation Yrotation
              JOINT rThumb1
              {
                OFFSET -1.2192 -0.487915 3.41376
                CHANNELS 3 Zrotation Xrotation Yrotation
                JOINT rThumb2
                {
                  OFFSET -3.37035 -0.52449 3.41376
                  CHANNELS 3 Zrotation Xrotation Yrotation
                  End Site
                  {
                    OFFSET -1.78271 -1.18214 1.43049
                  }
                }
              }
              JOINT rIndex1
              {
                OFFSET -7.75947 0.938293 5.60832
                CHANNELS 3 Zrotation Xrotation Yrotation
                JOINT rIndex2
                {
                  OFFSET -2.54057 -0.884171 1.56538
                  CHANNELS 3 Zrotation Xrotation Yrotation
                  End Site
                  {
                    OFFSET -1.62519 -0.234802 1.16502
                  }
                }
              }
              JOINT rMid1
              {
                OFFSET -8.24714 1.18213 3.41376
                CHANNELS 3 Zrotation Xrotation Yrotation
                JOINT rMid2
                {
                  OFFSET -3.10165 -0.590103 1.0647
                  CHANNELS 3 Zrotation Xrotation Yrotation
                  End Site
                  {
                    OFFSET -2.48547 -0.328903 0.83742
                  }
                }
              }
              JOINT rRing1
              {
                OFFSET -8.82822 0.546677 1.51678
                CHANNELS 3 Zrotation Xrotation Yrotation
                JOINT rRing2
                {
                  OFFSET -2.60934 -0.819778 -0.0198488
                  CHANNELS 3 Zrotation Xrotation Yrotation
                  End Site
                  {
                    OFFSET -2.33842 -0.294052 0.168128
                  }
                }
              }
              JOINT rPinky1
              {
                OFFSET -8.27202 -0.0477905 -0.4584
                CHANNELS 3 Zrotation Xrotation Yrotation
                JOINT rPinky2
                {
                  OFFSET -1.82734 -0.647385 -0.700984
                  CHANNELS 3 Zrotation Xrotation Yrotation
                  End Site
                  {
                    OFFSET -1.69225 -0.51767 -0.607171
                  }
                }
              }
            }
          }
        }
      }
      JOINT lCollar
      {
        OFFSET 2.68224 19.2634 -4.8768
        CHANNELS 3 Zrotation Xrotation Yrotation
        JOINT lShldr
        {
          OFFSET 8.77824 -1.95073 1.46304
          CHANNELS 3 Zrotation Xrotation Yrotation
          JOINT lForeArm
          {
            OFFSET 28.1742 -1.7115 0.48768
            CHANNELS 3 Zrotation Xrotation Yrotation
            JOINT lHand
            {
              OFFSET 22.5879 0.773209 7.07136
              CHANNELS 3 Zrotation Xrotation Yrotation
              JOINT lThumb1
              {
                OFFSET 1.2192 -0.487915 3.41376
                CHANNELS 3 Zrotation Xrotation Yrotation
                JOINT lThumb2
                {
                  OFFSET 3.37035 -0.52449 3.41376
                  CHANNELS 3 Zrotation Xrotation Yrotation
                  End Site
                  {
                    OFFSET 1.78271 -1.18214 1.43049
                  }
                }
              }
              JOINT lIndex1
              {
                OFFSET 7.75947 0.938293 5.60832
                CHANNELS 3 Zrotation Xrotation Yrotation
                JOINT lIndex2
                {
                  OFFSET 2.54057 -0.884171 1.56538
                  CHANNELS 3 Zrotation Xrotation Yrotation
                  End Site
                  {
                    OFFSET 1.62519 -0.234802 1.16502
                  }
                }
              }
              JOINT lMid1
              {
                OFFSET 8.24714 1.18213 3.41376
                CHANNELS 3 Zrotation Xrotation Yrotation
                JOINT lMid2
                {
                  OFFSET 3.10165 -0.590103 1.0647
                  CHANNELS 3 Zrotation Xrotation Yrotation
                  End Site
                  {
                    OFFSET 2.48547 -0.328903 0.83742
                  }
                }
              }
              JOINT lRing1
              {
                OFFSET 8.82822 0.546677 1.51678
                CHANNELS 3 Zrotation Xrotation Yrotation
                JOINT lRing2
                {
                  OFFSET 2.60934 -0.819778 -0.0198488
                  CHANNELS 3 Zrotation Xrotation Yrotation
                  End Site
                  {
                    OFFSET 2.33842 -0.294052 0.168128
                  }
                }
              }
              JOINT lPinky1
              {
                OFFSET 8.27202 -0.0477905 -0.4584
                CHANNELS 3 Zrotation Xrotation Yrotation
                JOINT lPinky2
                {
                  OFFSET 1.82734 -0.647385 -0.700984
                  CHANNELS 3 Zrotation Xrotation Yrotation
                  End Site
                  {
                    OFFSET 1.69225 -0.51767 -0.607171
                  }
                }
              }
            }
          }
        }
      }
    }
  }
  JOINT rButtock
  {
    OFFSET -8.77824 4.35084 1.2192
    CHANNELS 3 Zrotation Xrotation Yrotation
    JOINT rThigh
    {
      OFFSET 0 -1.70687 -2.19456
      CHANNELS 3 Zrotation Xrotation Yrotation
      JOINT rShin
      {
        OFFSET 0 -36.8199 0.73152
        CHANNELS 3 Zrotation Xrotation Yrotation
        JOINT rFoot
        {
          OFFSET 0.73152 -45.1104 -5.12064
          CHANNELS 3 Zrotation Xrotation Yrotation
          End Site
          {
            OFFSET -1.1221 -3.69964 12.103
          }
        }
      }
    }
  }
  JOINT lButtock
  {
    OFFSET 8.77824 4.35084 1.2192
    CHANNELS 3 Zrotation Xrotation Yrotation
    JOINT lThigh
    {
      OFFSET 0 -1.70687 -2.19456
      CHANNELS 3 Zrotation Xrotation Yrotation
      JOINT lShin
      {
        OFFSET 0 -36.8199 0.73152
        CHANNELS 3 Zrotation Xrotation Yrotation
        JOINT lFoot
        {
          OFFSET -0.73152 -45.1104 -5.12064
          CHANNELS 3 Zrotation Xrotation Yrotation
          End Site
          {
            OFFSET 1.1221 -3.69964 12.103
          }
        }
      }
    }
  }
}
MOTION
Frames:	6
Frame Time:	0.00833333
13.2935 85.7852 24.2134 7.79649 8.77272 -94.9161 13.0996 -2.60199 2.76283 -0.0917037 1.14291 0.582192 -6.63859 0.234784 -4.39016 9.0396 -1.29269 -7.16285 -0 0 0 -0 0 0 -7.46616e-014 8.52153e-013 1.95803e-014 69.9757 14.014 7.59082 -14.5264 -7.38679 26.6198 -0.0123266 3.12687 0.439922 1.34328e-010 -1.13242e-009 2.0675e-009 2.42097e-010 -1.95689e-009 3.5735e-009 1.34328e-010 -1.13242e-009 2.06749e-009 7.73091 5.47488 0.417314 1.34326e-010 -1.13243e-009 2.0675e-009 2.90554 0.965183 0.102902 1.34332e-010 -1.13243e-009 2.06751e-009 10.2786 0.731801 0.0259123 1.34321e-010 -1.13243e-009 2.06752e-009 2.22167 -0.733487 -0.20892 -7.46803e-014 8.52153e-013 1.94436e-014 -91.6606 8.08698 9.59016 8.73354 -3.40638 -15.4472 2.92518 42.7489 -7.46454 1.76614e-009 -5.39581e-010 -2.33602e-011 3.0406e-009 -9.40702e-010 -1.05195e-010 1.76613e-009 -5.39577e-010 -2.33528e-011 -7.73091 5.47488 -0.417314 1.76614e-009 -5.39579e-010 -2.33612e-011 -2.90554 0.965183 -0.102902 1.76613e-009 -5.39577e-010 -2.33613e-011 -10.2786 0.731801 -0.0259123 1.76614e-009 -5.3958e-010 -2.33785e-011 -2.22167 -0.733487 0.20892 -2.03217e-016 0 -3.88251e-019 14.3408 -3.61632 6.1989 -0.0250827 12.0824 0.215467 -1.10468 -8.59824 -3.00034 2.03217e-016 0 3.88251e-019 20.1714 -37.943 8.6272 0.167362 29.3483 -0.340252 1.23645 -0.813852 7.99283 
12.6317 85.7401 24.1984 8.04662 8.66903 -94.9534 12.9225 -2.85325 2.9629 -0.282455 1.21931 0.631838 -6.69439 0.376226 -4.37143 8.97829 -1.28472 -7.13047 -0 0 0 -0 0 0 9.77714e-014 4.15278e-013 -4.81641e-014 69.4901 14.5606 8.18167 -14.803 -7.62132 27.1835 -0.00943846 2.75557 0.38758 -1.00465e-009 -1.05023e-009 -8.56799e-010 -1.73873e-009 -1.82205e-009 -1.47525e-009 -1.00465e-009 -1.05023e-009 -8.56812e-010 7.73091 5.47488 0.417314 -1.00465e-009 -1.05023e-009 -8.56804e-010 2.90554 0.965183 0.102902 -1.00464e-009 -1.05023e-009 -8.56796e-010 10.2786 0.731801 0.0259123 -1.00466e-009 -1.05023e-009 -8.56781e-010 2.22167 -0.733487 -0.20892 9.77956e-014 4.15284e-013 -4.83039e-014 -91.6343 8.70768 9.47038 8.82618 -3.45787 -15.6181 2.85546 42.3539 -7.36141 -2.57018e-009 5.36353e-010 7.67381e-011 -4.42804e-009 9.34488e-010 2.14405e-010 -2.57018e-009 5.36359e-010 7.67426e-011 -7.73091 5.47488 -0.417314 -2.57018e-009 5.36359e-010 7.67382e-011 -2.90554 0.965183 -0.102902 -2.57019e-009 5.3636e-010 7.67353e-011 -10.2786 0.731801 -0.0259123 -2.57018e-009 5.3636e-010 7.67213e-011 -2.22167 -0.733487 0.20892 -2.03217e-016 0 -3.88251e-019 14.2189 -3.25229 6.2014 -0.0298797 11.7806 0.181725 -1.11747 -8.78856 -2.99664 2.03217e-016 0 3.88251e-019 19.5465 -37.6298 7.09345 0.130396 26.0229 -0.242677 1.20811 -0.409643 8.77213 
11.9606 85.6759 24.1828 8.28122 8.57307 -95.0146 12.7559 -3.08037 3.16361 -0.463676 1.30253 0.683423 -6.74592 0.509928 -4.34877 8.91374 -1.28374 -7.08977 -0 0 0 -0 0 0 2.0394e-013 -4.97153e-013 -7.42461e-014 68.9923 15.0937 8.79333 -15.0643 -7.84608 27.7211 -0.00695102 2.3798 0.334653 -1.65972e-009 -9.76379e-010 -2.55534e-009 -2.87812e-009 -1.69861e-009 -4.40769e-009 -1.65972e-009 -9.76374e-010 -2.55536e-009 7.73091 5.47488 0.417314 -1.65972e-009 -9.76377e-010 -2.55535e-009 2.90554 0.965183 0.102902 -1.65972e-009 -9.76379e-010 -2.55534e-009 10.2786 0.731801 0.0259123 -1.65973e-009 -9.76379e-010 -2.55532e-009 2.22167 -0.733487 -0.20892 2.0398e-013 -4.97143e-013 -7.43952e-014 -91.5835 9.27583 9.3305 8.92478 -3.51314 -15.8001 2.77865 41.9113 -7.24717 -5.01796e-009 1.14791e-009 9.80438e-011 -8.64446e-009 2.001e-009 3.34585e-010 -5.01795e-009 1.14791e-009 9.8047e-011 -7.73091 5.47488 -0.417314 -5.01795e-009 1.14792e-009 9.80438e-011 -2.90554 0.965183 -0.102902 -5.01796e-009 1.14792e-009 9.80398e-011 -10.2786 0.731801 -0.0259123 -5.01796e-009 1.14792e-009 9.80279e-011 -2.22167 -0.733487 0.20892 -2.03217e-016 0 -3.88251e-019 14.0917 -2.90914 6.1881 -0.0349181 11.5548 0.151044 -1.11771 -8.99706 -2.9373 2.03217e-016 0 3.88251e-019 18.9775 -37.3513 5.52817 0.104259 22.9653 -0.157323 1.19921 -0.268038 9.52327 
11.2828 85.5968 24.1685 8.50077 8.48065 -95.1139 12.5954 -3.28705 3.37467 -0.633996 1.39942 0.739988 -6.79326 0.639509 -4.32187 8.84606 -1.29342 -7.04033 -0 0 0 -0 0 0 2.14253e-013 -2.51821e-012 -3.01644e-014 68.4783 15.6224 9.42666 -15.3129 -8.06377 28.2358 -0.00469453 1.97345 0.277464 -1.57003e-009 -9.12966e-010 -2.38687e-009 -2.7225e-009 -1.58865e-009 -4.11654e-009 -1.57003e-009 -9.12961e-010 -2.38689e-009 7.73091 5.47488 0.417314 -1.57003e-009 -9.12963e-010 -2.38688e-009 2.90554 0.965183 0.102902 -1.57003e-009 -9.12965e-010 -2.38687e-009 10.2786 0.731801 0.0259123 -1.57004e-009 -9.12965e-010 -2.38686e-009 2.22167 -0.733487 -0.20892 2.1426e-013 -2.5182e-012 -3.0336e-014 -91.5106 9.79922 9.17565 9.03619 -3.57615 -16.0058 2.69019 41.3898 -7.11451 -4.55492e-009 1.04305e-009 -3.31916e-011 -7.84884e-009 1.82037e-009 9.4036e-011 -4.55491e-009 1.04306e-009 -3.31872e-011 -7.73091 5.47488 -0.417314 -4.55492e-009 1.04306e-009 -3.31935e-011 -2.90554 0.965183 -0.102902 -4.55492e-009 1.04306e-009 -3.31962e-011 -10.2786 0.731801 -0.0259123 -4.55492e-009 1.04307e-009 -3.32075e-011 -2.22167 -0.733487 0.20892 -2.03217e-016 0 -3.88251e-019 13.9536 -2.58302 6.1583 -0.0400003 11.3981 0.122453 -1.10098 -9.22208 -2.80551 2.03217e-016 0 3.88251e-019 18.4315 -37.0892 3.76477 0.0835581 20.0871 -0.0796502 1.2378 -0.499977 10.3412 
10.5978 85.5029 24.1559 8.7092 8.3871 -95.242 12.4366 -3.4785 3.59085 -0.797391 1.50994 0.799632 -6.83764 0.765698 -4.29071 8.77541 -1.31167 -6.98213 -0 0 0 -0 0 0 1.68231e-013 -5.31316e-012 5.65884e-014 67.9498 16.1298 10.0805 -15.5482 -8.27426 28.7242 -0.00276339 1.56006 0.219306 -1.02765e-009 -8.31923e-010 -1.15774e-009 -1.78013e-009 -1.44546e-009 -1.9942e-009 -1.02765e-009 -8.31918e-010 -1.15776e-009 7.73091 5.47488 0.417314 -1.02765e-009 -8.31919e-010 -1.15774e-009 2.90554 0.965183 0.102902 -1.02765e-009 -8.31922e-010 -1.15774e-009 10.2786 0.731801 0.0259123 -1.02766e-009 -8.31921e-010 -1.15772e-009 2.22167 -0.733487 -0.20892 1.68174e-013 -5.31315e-012 5.63834e-014 -91.4117 10.2694 9.00113 9.15585 -3.64433 -16.2273 2.59459 40.808 -6.96927 -2.40386e-009 5.31744e-010 -2.35116e-010 -4.14585e-009 9.31946e-010 -3.24897e-010 -2.40386e-009 5.31751e-010 -2.35108e-010 -7.73091 5.47488 -0.417314 -2.40386e-009 5.31753e-010 -2.35121e-010 -2.90554 0.965183 -0.102902 -2.40386e-009 5.31754e-010 -2.3512e-010 -10.2786 0.731801 -0.0259123 -2.40386e-009 5.31757e-010 -2.35132e-010 -2.22167 -0.733487 0.20892 -2.03217e-016 0 -3.88251e-019 13.8055 -2.27467 6.11948 -0.0451242 11.3014 0.0943088 -1.0705 -9.46225 -2.61841 2.03217e-016 0 3.88251e-019 17.8988 -36.8082 1.82097 0.0670842 17.3206 -0.00542556 1.31824 -0.980147 11.2 
9.90462 85.393 24.1457 8.90216 8.30252 -95.374 12.2916 -3.64253 3.79416 -0.95408 1.61874 0.85695 -6.87802 0.879809 -4.25597 8.70146 -1.33178 -6.91613 -0 0 0 -0 0 0 1.02813e-013 -7.70863e-012 1.42504e-013 67.4142 16.607 10.7543 -15.7668 -8.47298 29.1808 -0.0014975 1.18072 0.165959 -4.00461e-010 -7.49596e-010 2.94019e-010 -6.90379e-010 -1.29938e-009 5.12315e-010 -4.00458e-010 -7.49592e-010 2.93998e-010 7.73091 5.47488 0.417314 -4.00464e-010 -7.49592e-010 2.94015e-010 2.90554 0.965183 0.102902 -4.00459e-010 -7.49596e-010 2.94017e-010 10.2786 0.731801 0.0259123 -4.00471e-010 -7.49593e-010 2.9403e-010 2.22167 -0.733487 -0.20892 1.02694e-013 -7.70862e-012 1.42269e-013 -91.2832 10.6751 8.79761 9.27148 -3.71057 -16.4419 2.50161 40.2221 -6.82593 5.22116e-011 -5.14236e-011 -4.03184e-010 8.34232e-011 -8.22101e-011 -6.96029e-010 5.22156e-011 -5.1418e-011 -4.03173e-010 -7.73091 5.47488 -0.417314 5.22137e-011 -5.14169e-011 -4.03192e-010 -2.90554 0.965183 -0.102902 5.22101e-011 -5.14156e-011 -4.03188e-010 -10.2786 0.731801 -0.0259123 5.22157e-011 -5.14118e-011 -4.032e-010 -2.22167 -0.733487 0.20892 -2.03217e-016 0 -3.88251e-019 13.6602 -1.99211 6.0675 -0.0501647 11.2872 0.0698999 -1.03095 -9.72233 -2.40056 2.03217e-016 0 3.88251e-019 17.4477 -36.5711 0.0504994 0.0570701 14.916 0.0591959 1.41959 -1.54645 11.9062 
